<svg height="2686" width="720" xmlns="http://www.w3.org/2000/svg">
<rect height="2686" fill="#555" width="720"></rect>
<text fill="#7f7" font-family="Courier New" font-size="12" xml:space="preserve">
<tspan x="10" y="26">10 megabytes installed</tspan>
<tspan x="10" y="42"></tspan>
<tspan x="10" y="58">node_modules</tspan>
<tspan x="10" y="74">└─┬ gulp-tinypng@1.0.2 </tspan>
<tspan x="10" y="90">  ├─┬ event-stream@3.1.7 </tspan>
<tspan x="10" y="106">  │ ├── duplexer@0.1.1 </tspan>
<tspan x="10" y="122">  │ ├── from@0.1.7 </tspan>
<tspan x="10" y="138">  │ ├── map-stream@0.1.0 </tspan>
<tspan x="10" y="154">  │ ├── pause-stream@0.0.11 </tspan>
<tspan x="10" y="170">  │ ├── split@0.2.10 </tspan>
<tspan x="10" y="186">  │ ├── stream-combiner@0.0.4 </tspan>
<tspan x="10" y="202">  │ └── through@2.3.8 </tspan>
<tspan x="10" y="218">  ├─┬ gulp@3.3.4 </tspan>
<tspan x="10" y="234">  │ ├─┬ findup-sync@0.1.3 </tspan>
<tspan x="10" y="250">  │ │ ├─┬ glob@3.2.11 </tspan>
<tspan x="10" y="266">  │ │ │ └─┬ minimatch@0.3.0 </tspan>
<tspan x="10" y="282">  │ │ │   ├── lru-cache@2.7.3 </tspan>
<tspan x="10" y="298">  │ │ │   └── sigmund@1.0.1 </tspan>
<tspan x="10" y="314">  │ │ └── lodash@2.4.2 </tspan>
<tspan x="10" y="330">  │ ├─┬ glob-stream@3.1.18 </tspan>
<tspan x="10" y="346">  │ │ ├─┬ glob@4.5.3 </tspan>
<tspan x="10" y="362">  │ │ │ ├─┬ inflight@1.0.6 </tspan>
<tspan x="10" y="378">  │ │ │ │ └── wrappy@1.0.2 </tspan>
<tspan x="10" y="394">  │ │ │ └── once@1.4.0 </tspan>
<tspan x="10" y="410">  │ │ ├─┬ glob2base@0.0.12 </tspan>
<tspan x="10" y="426">  │ │ │ └── find-index@0.1.1 </tspan>
<tspan x="10" y="442">  │ │ ├─┬ minimatch@2.0.10 </tspan>
<tspan x="10" y="458">  │ │ │ └─┬ brace-expansion@1.1.7 </tspan>
<tspan x="10" y="474">  │ │ │   ├── balanced-match@0.4.2 </tspan>
<tspan x="10" y="490">  │ │ │   └── concat-map@0.0.1 </tspan>
<tspan x="10" y="506">  │ │ ├── ordered-read-streams@0.1.0 </tspan>
<tspan x="10" y="522">  │ │ ├─┬ through2@0.6.5 </tspan>
<tspan x="10" y="538">  │ │ │ └── xtend@4.0.1 </tspan>
<tspan x="10" y="554">  │ │ └── unique-stream@1.0.0 </tspan>
<tspan x="10" y="570">  │ ├─┬ glob-watcher@0.0.8 </tspan>
<tspan x="10" y="586">  │ │ └─┬ gaze@0.5.2 </tspan>
<tspan x="10" y="602">  │ │   └─┬ globule@0.1.0 </tspan>
<tspan x="10" y="618">  │ │     ├─┬ glob@3.1.21 </tspan>
<tspan x="10" y="634">  │ │     │ ├── graceful-fs@1.2.3 </tspan>
<tspan x="10" y="650">  │ │     │ └── inherits@1.0.2 </tspan>
<tspan x="10" y="666">  │ │     ├── lodash@1.0.2 </tspan>
<tspan x="10" y="682">  │ │     └── minimatch@0.2.14 </tspan>
<tspan x="10" y="698">  │ ├── graceful-fs@2.0.3 </tspan>
<tspan x="10" y="714">  │ ├─┬ optimist@0.6.1 </tspan>
<tspan x="10" y="730">  │ │ ├── minimist@0.0.10 </tspan>
<tspan x="10" y="746">  │ │ └── wordwrap@0.0.3 </tspan>
<tspan x="10" y="762">  │ ├─┬ orchestrator@0.3.8 </tspan>
<tspan x="10" y="778">  │ │ ├─┬ end-of-stream@0.1.5 </tspan>
<tspan x="10" y="794">  │ │ │ └── once@1.3.3 </tspan>
<tspan x="10" y="810">  │ │ ├── sequencify@0.0.7 </tspan>
<tspan x="10" y="826">  │ │ └── stream-consume@0.1.0 </tspan>
<tspan x="10" y="842">  │ ├── pretty-hrtime@0.2.2 </tspan>
<tspan x="10" y="858">  │ ├── resolve@0.6.3 </tspan>
<tspan x="10" y="874">  │ └── semver@2.2.1 </tspan>
<tspan x="10" y="890">  ├─┬ gulp-util@2.2.20 </tspan>
<tspan x="10" y="906">  │ ├─┬ chalk@0.5.1 </tspan>
<tspan x="10" y="922">  │ │ ├── ansi-styles@1.1.0 </tspan>
<tspan x="10" y="938">  │ │ ├── escape-string-regexp@1.0.5 </tspan>
<tspan x="10" y="954">  │ │ ├─┬ has-ansi@0.1.0 </tspan>
<tspan x="10" y="970">  │ │ │ └── ansi-regex@0.2.1 </tspan>
<tspan x="10" y="986">  │ │ ├── strip-ansi@0.3.0 </tspan>
<tspan x="10" y="1002">  │ │ └── supports-color@0.2.0 </tspan>
<tspan x="10" y="1018">  │ ├─┬ dateformat@1.0.12 </tspan>
<tspan x="10" y="1034">  │ │ ├── get-stdin@4.0.1 </tspan>
<tspan x="10" y="1050">  │ │ └─┬ meow@3.7.0 </tspan>
<tspan x="10" y="1066">  │ │   ├─┬ camelcase-keys@2.1.0 </tspan>
<tspan x="10" y="1082">  │ │   │ └── camelcase@2.1.1 </tspan>
<tspan x="10" y="1098">  │ │   ├── decamelize@1.2.0 </tspan>
<tspan x="10" y="1114">  │ │   ├─┬ loud-rejection@1.6.0 </tspan>
<tspan x="10" y="1130">  │ │   │ ├─┬ currently-unhandled@0.4.1 </tspan>
<tspan x="10" y="1146">  │ │   │ │ └── array-find-index@1.0.2 </tspan>
<tspan x="10" y="1162">  │ │   │ └── signal-exit@3.0.2 </tspan>
<tspan x="10" y="1178">  │ │   ├── map-obj@1.0.1 </tspan>
<tspan x="10" y="1194">  │ │   ├── minimist@1.2.0 </tspan>
<tspan x="10" y="1210">  │ │   ├─┬ normalize-package-data@2.3.6 </tspan>
<tspan x="10" y="1226">  │ │   │ ├── hosted-git-info@2.4.2 </tspan>
<tspan x="10" y="1242">  │ │   │ ├─┬ is-builtin-module@1.0.0 </tspan>
<tspan x="10" y="1258">  │ │   │ │ └── builtin-modules@1.1.1 </tspan>
<tspan x="10" y="1274">  │ │   │ └─┬ validate-npm-package-license@3.0.1 </tspan>
<tspan x="10" y="1290">  │ │   │   ├─┬ spdx-correct@1.0.2 </tspan>
<tspan x="10" y="1306">  │ │   │   │ └── spdx-license-ids@1.2.2 </tspan>
<tspan x="10" y="1322">  │ │   │   └── spdx-expression-parse@1.0.4 </tspan>
<tspan x="10" y="1338">  │ │   ├── object-assign@4.1.1 </tspan>
<tspan x="10" y="1354">  │ │   ├─┬ read-pkg-up@1.0.1 </tspan>
<tspan x="10" y="1370">  │ │   │ ├─┬ find-up@1.1.2 </tspan>
<tspan x="10" y="1386">  │ │   │ │ ├── path-exists@2.1.0 </tspan>
<tspan x="10" y="1402">  │ │   │ │ └─┬ pinkie-promise@2.0.1 </tspan>
<tspan x="10" y="1418">  │ │   │ │   └── pinkie@2.0.4 </tspan>
<tspan x="10" y="1434">  │ │   │ └─┬ read-pkg@1.1.0 </tspan>
<tspan x="10" y="1450">  │ │   │   ├─┬ load-json-file@1.1.0 </tspan>
<tspan x="10" y="1466">  │ │   │   │ ├── graceful-fs@4.1.11 </tspan>
<tspan x="10" y="1482">  │ │   │   │ ├─┬ parse-json@2.2.0 </tspan>
<tspan x="10" y="1498">  │ │   │   │ │ └─┬ error-ex@1.3.1 </tspan>
<tspan x="10" y="1514">  │ │   │   │ │   └── is-arrayish@0.2.1 </tspan>
<tspan x="10" y="1530">  │ │   │   │ ├── pify@2.3.0 </tspan>
<tspan x="10" y="1546">  │ │   │   │ └─┬ strip-bom@2.0.0 </tspan>
<tspan x="10" y="1562">  │ │   │   │   └── is-utf8@0.2.1 </tspan>
<tspan x="10" y="1578">  │ │   │   └─┬ path-type@1.1.0 </tspan>
<tspan x="10" y="1594">  │ │   │     └── graceful-fs@4.1.11 </tspan>
<tspan x="10" y="1610">  │ │   ├─┬ redent@1.0.0 </tspan>
<tspan x="10" y="1626">  │ │   │ ├─┬ indent-string@2.1.0 </tspan>
<tspan x="10" y="1642">  │ │   │ │ └─┬ repeating@2.0.1 </tspan>
<tspan x="10" y="1658">  │ │   │ │   └─┬ is-finite@1.0.2 </tspan>
<tspan x="10" y="1674">  │ │   │ │     └── number-is-nan@1.0.1 </tspan>
<tspan x="10" y="1690">  │ │   │ └── strip-indent@1.0.1 </tspan>
<tspan x="10" y="1706">  │ │   └── trim-newlines@1.0.0 </tspan>
<tspan x="10" y="1722">  │ ├── lodash._reinterpolate@2.4.1 </tspan>
<tspan x="10" y="1738">  │ ├─┬ lodash.template@2.4.1 </tspan>
<tspan x="10" y="1754">  │ │ ├── lodash._escapestringchar@2.4.1 </tspan>
<tspan x="10" y="1770">  │ │ ├─┬ lodash.defaults@2.4.1 </tspan>
<tspan x="10" y="1786">  │ │ │ └── lodash._objecttypes@2.4.1 </tspan>
<tspan x="10" y="1802">  │ │ ├─┬ lodash.escape@2.4.1 </tspan>
<tspan x="10" y="1818">  │ │ │ ├─┬ lodash._escapehtmlchar@2.4.1 </tspan>
<tspan x="10" y="1834">  │ │ │ │ └── lodash._htmlescapes@2.4.1 </tspan>
<tspan x="10" y="1850">  │ │ │ └── lodash._reunescapedhtml@2.4.1 </tspan>
<tspan x="10" y="1866">  │ │ ├─┬ lodash.keys@2.4.1 </tspan>
<tspan x="10" y="1882">  │ │ │ ├── lodash._isnative@2.4.1 </tspan>
<tspan x="10" y="1898">  │ │ │ ├── lodash._shimkeys@2.4.1 </tspan>
<tspan x="10" y="1914">  │ │ │ └── lodash.isobject@2.4.1 </tspan>
<tspan x="10" y="1930">  │ │ ├── lodash.templatesettings@2.4.1 </tspan>
<tspan x="10" y="1946">  │ │ └── lodash.values@2.4.1 </tspan>
<tspan x="10" y="1962">  │ ├── minimist@0.2.0 </tspan>
<tspan x="10" y="1978">  │ ├─┬ multipipe@0.1.2 </tspan>
<tspan x="10" y="1994">  │ │ └─┬ duplexer2@0.0.2 </tspan>
<tspan x="10" y="2010">  │ │   └── readable-stream@1.1.14 </tspan>
<tspan x="10" y="2026">  │ └─┬ through2@0.5.1 </tspan>
<tspan x="10" y="2042">  │   └── xtend@3.0.0 </tspan>
<tspan x="10" y="2058">  ├── mkdirp@0.3.5 </tspan>
<tspan x="10" y="2074">  ├─┬ request@2.31.0 </tspan>
<tspan x="10" y="2090">  │ ├── aws-sign2@0.5.0 </tspan>
<tspan x="10" y="2106">  │ ├── forever-agent@0.5.2 </tspan>
<tspan x="10" y="2122">  │ ├─┬ form-data@0.1.4 </tspan>
<tspan x="10" y="2138">  │ │ ├── async@0.9.2 </tspan>
<tspan x="10" y="2154">  │ │ └─┬ combined-stream@0.0.7 </tspan>
<tspan x="10" y="2170">  │ │   └── delayed-stream@0.0.5 </tspan>
<tspan x="10" y="2186">  │ ├─┬ hawk@1.0.0 </tspan>
<tspan x="10" y="2202">  │ │ ├── boom@0.4.2 </tspan>
<tspan x="10" y="2218">  │ │ ├── cryptiles@0.2.2 </tspan>
<tspan x="10" y="2234">  │ │ ├── hoek@0.9.1 </tspan>
<tspan x="10" y="2250">  │ │ └── sntp@0.2.4 </tspan>
<tspan x="10" y="2266">  │ ├─┬ http-signature@0.10.1 </tspan>
<tspan x="10" y="2282">  │ │ ├── asn1@0.1.11 </tspan>
<tspan x="10" y="2298">  │ │ ├── assert-plus@0.1.5 </tspan>
<tspan x="10" y="2314">  │ │ └── ctype@0.5.3 </tspan>
<tspan x="10" y="2330">  │ ├── json-stringify-safe@5.0.1 </tspan>
<tspan x="10" y="2346">  │ ├── mime@1.2.11 </tspan>
<tspan x="10" y="2362">  │ ├── node-uuid@1.4.8 </tspan>
<tspan x="10" y="2378">  │ ├── oauth-sign@0.3.0 </tspan>
<tspan x="10" y="2394">  │ ├── qs@0.6.6 </tspan>
<tspan x="10" y="2410">  │ ├─┬ tough-cookie@0.9.15 </tspan>
<tspan x="10" y="2426">  │ │ └── punycode@2.1.0 </tspan>
<tspan x="10" y="2442">  │ └── tunnel-agent@0.3.0 </tspan>
<tspan x="10" y="2458">  ├─┬ rmdir@1.0.4 </tspan>
<tspan x="10" y="2474">  │ └─┬ node.flow@1.2.3 </tspan>
<tspan x="10" y="2490">  │   └─┬ node.extend@1.0.8 </tspan>
<tspan x="10" y="2506">  │     └── is@0.2.7 </tspan>
<tspan x="10" y="2522">  ├─┬ through2@0.4.2 </tspan>
<tspan x="10" y="2538">  │ ├─┬ readable-stream@1.0.34 </tspan>
<tspan x="10" y="2554">  │ │ ├── core-util-is@1.0.2 </tspan>
<tspan x="10" y="2570">  │ │ ├── inherits@2.0.3 </tspan>
<tspan x="10" y="2586">  │ │ ├── isarray@0.0.1 </tspan>
<tspan x="10" y="2602">  │ │ └── string_decoder@0.10.31 </tspan>
<tspan x="10" y="2618">  │ └─┬ xtend@2.1.2 </tspan>
<tspan x="10" y="2634">  │   └── object-keys@0.4.0 </tspan>
<tspan x="10" y="2650">  └─┬ vinyl@0.2.3 </tspan>
<tspan x="10" y="2666">    └── clone-stats@0.0.1</tspan>
</text>
</svg>
